<svg width="29" height="28" viewBox="0 0 29 28" fill="none" xmlns="http://www.w3.org/2000/svg">
<path fill-rule="evenodd" clip-rule="evenodd" d="M14.1214 0C6.37334 0 0.109802 6.30972 0.109802 14.1157C0.109802 20.3554 4.12307 25.6372 9.69053 27.5066C10.3866 27.6472 10.6416 27.2029 10.6416 26.8292C10.6416 26.502 10.6186 25.3803 10.6186 24.2115C6.72095 25.053 5.90929 22.5288 5.90929 22.5288C5.28291 20.8929 4.35481 20.4724 4.35481 20.4724C3.0791 19.6077 4.44773 19.6077 4.44773 19.6077C5.86283 19.7012 6.60537 21.0567 6.60537 21.0567C7.85785 23.2066 9.87609 22.5991 10.688 22.2251C10.8039 21.3136 11.1753 20.6827 11.5697 20.3322C8.461 20.005 5.19027 18.7898 5.19027 13.3677C5.19027 11.8253 5.74667 10.5633 6.62831 9.58188C6.48921 9.2314 6.00193 7.78217 6.7677 5.84251C6.7677 5.84251 7.95077 5.46852 10.6183 7.29145C11.7604 6.98246 12.9382 6.82528 14.1214 6.82396C15.3045 6.82396 16.5105 6.98772 17.6241 7.29145C20.292 5.46852 21.4751 5.84251 21.4751 5.84251C22.2408 7.78217 21.7533 9.2314 21.6142 9.58188C22.519 10.5633 23.0525 11.8253 23.0525 13.3677C23.0525 18.7898 19.7818 19.9814 16.6499 20.3322C17.1604 20.7762 17.6009 21.6174 17.6009 22.9496C17.6009 24.8425 17.578 26.3617 17.578 26.8289C17.578 27.2029 17.8332 27.6472 18.529 27.5069C24.0965 25.6369 28.1097 20.3554 28.1097 14.1157C28.1327 6.30972 21.8462 0 14.1214 0Z" fill="#24292F"/>
</svg>
