<svg width="541" height="343" viewBox="0 0 541 343" fill="none" xmlns="http://www.w3.org/2000/svg">
<path d="M417.286 10.6564V143.551" stroke="white" stroke-width="6" stroke-linecap="round" stroke-linejoin="round"/>
<path d="M442.698 25.1684H126.703C119.616 25.1684 113.871 30.7417 113.871 37.6166V178.821C113.871 185.696 119.616 191.269 126.703 191.269H442.698C449.784 191.269 455.529 185.696 455.529 178.821V37.6166C455.529 30.7417 449.784 25.1684 442.698 25.1684Z" fill="#597EF7"/>
<path d="M399.91 66.6625H255.019C252.657 66.6625 250.742 68.5202 250.742 70.8119V79.1107C250.742 81.4023 252.657 83.2601 255.019 83.2601H399.91C402.272 83.2601 404.187 81.4023 404.187 79.1107V70.8119C404.187 68.5202 402.272 66.6625 399.91 66.6625Z" fill="#2F54EB"/>
<path d="M332.544 133.053H255.019C252.657 133.053 250.742 134.911 250.742 137.202V145.501C250.742 147.793 252.657 149.65 255.019 149.65H332.544C334.906 149.65 336.821 147.793 336.821 145.501V137.202C336.821 134.911 334.906 133.053 332.544 133.053Z" fill="#597EF7"/>
<path d="M399.91 99.8577H255.019C252.657 99.8577 250.742 101.715 250.742 104.007V112.306C250.742 114.598 252.657 116.455 255.019 116.455H399.91C402.272 116.455 404.187 114.598 404.187 112.306V104.007C404.187 101.715 402.272 99.8577 399.91 99.8577Z" fill="#2F54EB"/>
<path d="M195.138 66.6625H143.812C139.087 66.6625 135.257 70.378 135.257 74.9613V124.754C135.257 129.337 139.087 133.053 143.812 133.053H195.138C199.863 133.053 203.693 129.337 203.693 124.754V74.9613C203.693 70.378 199.863 66.6625 195.138 66.6625Z" fill="#2F54EB"/>
<path d="M225.346 66.6625V174.723" stroke="white" stroke-width="6" stroke-linecap="round" stroke-linejoin="round"/>
<path d="M387.094 126.435H71.0991C64.0124 126.435 58.2675 132.008 58.2675 138.883V280.087C58.2675 286.962 64.0124 292.535 71.0991 292.535H387.094C394.181 292.535 399.926 286.962 399.926 280.087V138.883C399.926 132.008 394.181 126.435 387.094 126.435Z" fill="#E4EBF7"/>
<path d="M344.306 167.929H199.415C197.053 167.929 195.138 169.786 195.138 172.078V180.377C195.138 182.669 197.053 184.526 199.415 184.526H344.306C346.668 184.526 348.583 182.669 348.583 180.377V172.078C348.583 169.786 346.668 167.929 344.306 167.929Z" fill="#597EF7"/>
<path d="M276.94 234.319H199.415C197.053 234.319 195.138 236.177 195.138 238.468V246.767C195.138 249.059 197.053 250.917 199.415 250.917H276.94C279.302 250.917 281.217 249.059 281.217 246.767V238.468C281.217 236.177 279.302 234.319 276.94 234.319Z" fill="#597EF7"/>
<path d="M344.306 201.124H199.415C197.053 201.124 195.138 202.982 195.138 205.273V213.572C195.138 215.864 197.053 217.722 199.415 217.722H344.306C346.668 217.722 348.583 215.864 348.583 213.572V205.273C348.583 202.982 346.668 201.124 344.306 201.124Z" fill="#597EF7"/>
<path d="M139.535 167.929H88.208C83.4835 167.929 79.6536 171.644 79.6536 176.228V226.02C79.6536 230.604 83.4835 234.319 88.208 234.319H139.535C144.259 234.319 148.089 230.604 148.089 226.02V176.228C148.089 171.644 144.259 167.929 139.535 167.929Z" fill="#597EF7"/>
<path d="M169.742 167.929V275.99" stroke="white" stroke-width="6" stroke-linecap="round" stroke-linejoin="round"/>
<path fill-rule="evenodd" clip-rule="evenodd" d="M63.3535 82.475C54.5039 82.475 47.3297 75.5152 47.3297 66.93C47.3297 58.3448 54.5039 51.385 63.3535 51.385C72.2032 51.385 79.3773 58.3448 79.3773 66.93C79.3773 75.5152 72.2032 82.475 63.3535 82.475ZM111.444 73.9618V59.898L100.018 57.0817C99.1802 54.1388 97.9762 51.3437 96.4561 48.7452L102.484 38.9135L92.233 28.9689L82.0984 34.8165C79.4197 33.3417 76.5385 32.1739 73.5052 31.3609L70.6019 20.2768H56.105L53.2019 31.3609C50.1684 32.1739 47.2872 33.3417 44.6086 34.8165L34.4741 28.9689L24.2232 38.9135L30.2508 48.7452C28.7309 51.3437 27.5269 54.139 26.6888 57.0817L15.2634 59.898V73.9618L26.6888 76.7783C27.5269 79.721 28.7309 82.5161 30.2508 85.1148L24.2232 94.9465L34.4741 104.891L44.6086 99.0435C47.2872 100.518 50.1684 101.686 53.2019 102.499L56.105 113.583H70.6019L73.5052 102.499C76.5385 101.686 79.4197 100.518 82.0984 99.0435L92.233 104.891L102.484 94.9465L96.4561 85.1148C97.9762 82.5161 99.1802 79.721 100.018 76.7783L111.444 73.9618Z" fill="#8BBC06"/>
<path fill-rule="evenodd" clip-rule="evenodd" d="M424.126 319.238L484.608 217.292L510.458 217.292L450.912 319.238L424.126 319.238Z" fill="#FF7A46"/>
<path d="M427.654 252.034C437.982 252.034 446.354 243.912 446.354 233.893C446.354 223.874 437.982 215.752 427.654 215.752C417.326 215.752 408.954 223.874 408.954 233.893C408.954 243.912 417.326 252.034 427.654 252.034Z" fill="#FF7A46"/>
<path d="M500.359 319.373C510.686 319.373 519.059 311.251 519.059 301.232C519.059 291.213 510.686 283.091 500.359 283.091C490.031 283.091 481.659 291.213 481.659 301.232C481.659 311.251 490.031 319.373 500.359 319.373Z" fill="#FF7A46"/>
<path fill-rule="evenodd" clip-rule="evenodd" d="M519.94 101.167L480.625 120.237C479.597 120.736 478.347 120.332 477.833 119.334C477.688 119.054 477.613 118.745 477.613 118.431L477.613 80.291C477.613 79.1759 478.545 78.2718 479.695 78.2718C480.018 78.2718 480.336 78.3448 480.625 78.485L519.94 97.5551C520.968 98.0538 521.385 99.2666 520.871 100.264C520.67 100.655 520.343 100.972 519.94 101.167Z" fill="#FAAD14"/>
</svg>
