<svg width="465" height="418" viewBox="0 0 465 418" fill="none" xmlns="http://www.w3.org/2000/svg">
<path d="M241.736 110.718H78.7101C74.2872 110.718 70.7017 114.197 70.7017 118.488V339.515H216.339C216.339 363.243 237.255 379.824 261.754 379.701C285.833 379.584 305.531 359.782 305.531 336.426V172.302H263.022C256.242 172.302 241.736 157.903 241.736 151.329V110.718Z" fill="#E4EBF7"/>
<path d="M216.66 338.819H49.626C49.626 360.016 65.5195 375.34 86.3716 378.736L93.7127 379.332L261.08 379.008C236.734 379.008 216.039 360.87 216.66 338.819Z" fill="#253368"/>
<path d="M142.514 131.449H106.049C104.324 131.449 102.926 132.806 102.926 134.479V169.855C102.926 171.528 104.324 172.885 106.049 172.885H142.514C144.239 172.885 145.638 171.528 145.638 169.855V134.479C145.638 132.806 144.239 131.449 142.514 131.449Z" fill="#597EF7"/>
<path d="M259.899 193.279H105.976C104.251 193.279 102.852 194.636 102.852 196.309V200.608C102.852 202.281 104.251 203.638 105.976 203.638H259.899C261.624 203.638 263.022 202.281 263.022 200.608V196.309C263.022 194.636 261.624 193.279 259.899 193.279Z" fill="#597EF7"/>
<path d="M259.899 224.469H105.976C104.251 224.469 102.852 225.826 102.852 227.499V231.798C102.852 233.471 104.251 234.828 105.976 234.828H259.899C261.624 234.828 263.022 233.471 263.022 231.798V227.499C263.022 225.826 261.624 224.469 259.899 224.469Z" fill="#597EF7"/>
<path d="M259.899 255.659H105.976C104.251 255.659 102.852 257.016 102.852 258.689V262.988C102.852 264.661 104.251 266.018 105.976 266.018H259.899C261.624 266.018 263.022 264.661 263.022 262.988V258.689C263.022 257.016 261.624 255.659 259.899 255.659Z" fill="#597EF7"/>
<path opacity="0.6" d="M241.716 162.393V170.486C241.716 172.225 242.462 173.886 243.776 175.069C245.09 176.252 246.853 176.851 248.64 176.721L305.747 172.6L241.716 162.393Z" fill="#CCD7EE"/>
<path d="M274.818 141.556L241.646 110.521L241.733 170C241.733 171.431 242.928 172.59 244.402 172.59H305.747L274.818 141.556Z" fill="#FAAD14"/>
<path fill-rule="evenodd" clip-rule="evenodd" d="M286.792 63.502C254.623 63.502 228.545 88.801 228.545 120.009C228.545 151.217 254.623 176.516 286.792 176.516C318.962 176.516 345.04 151.217 345.04 120.009C345.04 88.801 318.962 63.502 286.792 63.502Z" fill="#597EF7"/>
<path fill-rule="evenodd" clip-rule="evenodd" d="M300.546 97.838C303.61 100.506 305.182 104.164 305.182 108.738C305.182 112.472 304.16 115.597 302.274 118.036C301.567 118.875 299.367 120.857 295.596 123.982C294.182 125.201 293.082 126.497 292.375 127.869C291.511 129.393 291.118 131.07 291.118 132.976V134.785C291.118 135.54 290.486 136.153 289.707 136.153H284.121C283.342 136.153 282.711 135.54 282.711 134.785V132.976C282.711 130.156 283.182 127.717 284.204 125.735C285.304 123.601 288.289 120.476 293.16 116.283L294.496 114.835C295.91 113.082 296.618 111.253 296.618 109.271C296.618 106.603 295.832 104.545 294.339 103.021C292.768 101.497 290.568 100.734 287.739 100.734C284.204 100.734 281.611 101.801 280.04 103.936C278.81 105.525 278.116 107.748 277.955 110.504C277.912 111.225 277.292 111.786 276.548 111.786H271.037C270.233 111.786 269.586 111.133 269.628 110.354C269.892 105.471 271.535 101.598 274.618 98.6764C277.918 95.399 282.475 93.7982 288.211 93.7982C293.318 93.7982 297.403 95.094 300.546 97.838Z" fill="white"/>
<path fill-rule="evenodd" clip-rule="evenodd" d="M287.601 148.563H285.521C283.797 148.563 282.4 147.208 282.4 145.536V143.518C282.4 141.846 283.797 140.491 285.521 140.491H287.601C289.324 140.491 290.721 141.846 290.721 143.518V145.536C290.721 147.208 289.324 148.563 287.601 148.563Z" fill="white"/>
<g clip-path="url(#clip0_4449_2049)">
<path d="M342.901 323.057L369.389 344.022" stroke="#8692A5" stroke-width="1.88133" stroke-linecap="round"/>
<path d="M335.209 313.513C339.1 311.823 343.668 313.543 345.411 317.355C347.154 321.168 345.411 325.629 341.52 327.319C337.63 329.008 333.062 327.289 331.319 323.476C329.576 319.664 331.319 315.203 335.209 313.513Z" fill="#37568B" stroke="#8692A5" stroke-width="0.152344"/>
<path d="M418.466 294.066C422.357 292.376 426.925 294.095 428.668 297.908C430.411 301.72 428.668 306.181 424.777 307.871C420.887 309.561 416.32 307.841 414.577 304.029C412.834 300.216 414.576 295.756 418.466 294.066Z" fill="#37568B" stroke="#8692A5" stroke-width="0.152344"/>
<path d="M380.309 348.895L387.645 286.641" stroke="#8692A5" stroke-width="1.88133" stroke-linecap="round"/>
<path d="M383.416 355.81C387.306 354.12 389.049 349.659 387.306 345.847C385.563 342.034 380.995 340.315 377.104 342.005C373.214 343.695 371.472 348.155 373.215 351.967C374.958 355.78 379.525 357.5 383.416 355.81Z" fill="#37568B" stroke="#8692A5" stroke-width="0.152344"/>
<path d="M389.312 274.428L412.968 294.172" stroke="#8692A5" stroke-width="1.88133" stroke-linecap="round"/>
<path d="M382.1 271.76C380.569 275.634 382.554 279.975 386.534 281.456C390.514 282.936 394.981 280.996 396.513 277.121C398.044 273.247 396.06 268.905 392.08 267.425C388.101 265.944 383.632 267.885 382.1 271.76Z" fill="#37568B" stroke="#8692A5" stroke-width="0.152344"/>
</g>
<rect width="105.636" height="102.48" transform="translate(0.463257)" fill="white"/>
<path fill-rule="evenodd" clip-rule="evenodd" d="M56.6808 24.8193L39.3499 77.636H49.8277L67.1587 24.8193H56.6808Z" fill="#4E5C93"/>
<path fill-rule="evenodd" clip-rule="evenodd" d="M31.9676 30.824H20.8446H13.8329C13.2858 30.824 12.8425 31.2541 12.8425 31.7847V38.587V63.8682V70.6704C12.8425 71.2011 13.2858 71.6312 13.8329 71.6312H20.8446H31.9676C32.5145 71.6312 32.9579 71.2011 32.9579 70.6704V64.829C32.9579 64.2983 32.5145 63.8682 31.9676 63.8682H20.8446V38.587H31.9676C32.5145 38.587 32.9579 38.1569 32.9579 37.6263V31.7847C32.9579 31.2541 32.5145 30.824 31.9676 30.824Z" fill="#5490F8"/>
<path fill-rule="evenodd" clip-rule="evenodd" d="M92.6754 30.824H85.6636H74.5407C73.9938 30.824 73.5504 31.2541 73.5504 31.7847V37.6263C73.5504 38.1569 73.9938 38.587 74.5407 38.587H85.6636V63.8682H74.5407C73.9938 63.8682 73.5504 64.2983 73.5504 64.829V70.6704C73.5504 71.2011 73.9938 71.6312 74.5407 71.6312H85.6636H92.6754C93.2225 71.6312 93.6658 71.2011 93.6658 70.6704V64.829V37.6263V31.7847C93.6658 31.2541 93.2225 30.824 92.6754 30.824Z" fill="#5490F8"/>
<defs>
<clipPath id="clip0_4449_2049">
<rect width="127.71" height="130.161" fill="white" transform="matrix(0.367623 -0.929975 0.93724 0.348685 296.059 348.447)"/>
</clipPath>
</defs>
</svg>
