<svg width="28" height="28" viewBox="0 0 28 28" fill="none" xmlns="http://www.w3.org/2000/svg">
<path d="M13.5594 0C7.90034 0 6.24528 0.00583793 5.92357 0.0325256C4.76224 0.12906 4.03959 0.311912 3.2523 0.703888C2.64557 1.00517 2.16707 1.3544 1.69482 1.84395C0.83477 2.73674 0.313526 3.83511 0.124835 5.14072C0.0330963 5.77455 0.00640863 5.90382 0.000987691 9.14137C-0.00109728 10.2206 0.000987691 11.6408 0.000987691 13.5459C0.000987691 19.2003 0.00724262 20.8537 0.0343473 21.1748C0.128171 22.3049 0.305394 23.0158 0.68069 23.7935C1.39792 25.2822 2.76775 26.3998 4.38152 26.8168C4.9403 26.9606 5.55745 27.0398 6.34974 27.0774C6.68542 27.092 10.1069 27.1024 13.5304 27.1024C16.9539 27.1024 20.3775 27.0982 20.7048 27.0816C21.6222 27.0384 22.1549 26.9669 22.7439 26.8147C23.5441 26.6095 24.2898 26.2321 24.929 25.7088C25.5682 25.1856 26.0855 24.5291 26.4447 23.7852C26.8127 23.0263 26.9993 22.2882 27.0838 21.2171C27.1021 20.9836 27.1098 17.2605 27.1098 13.5423C27.1098 9.82357 27.1015 6.10731 27.0832 5.8738C26.9977 4.78544 26.8111 4.05361 26.4312 3.28008C26.1195 2.64688 25.7734 2.174 25.2709 1.6905C24.3744 0.833991 23.2777 0.312746 21.9706 0.124265C21.3374 0.0327341 21.2112 0.00562944 17.9712 0H13.5594Z" fill="url(#paint0_radial_4522_1169)"/>
<path d="M13.5594 0C7.90034 0 6.24528 0.00583793 5.92357 0.0325256C4.76224 0.12906 4.03959 0.311912 3.2523 0.703888C2.64557 1.00517 2.16707 1.3544 1.69482 1.84395C0.83477 2.73674 0.313526 3.83511 0.124835 5.14072C0.0330963 5.77455 0.00640863 5.90382 0.000987691 9.14137C-0.00109728 10.2206 0.000987691 11.6408 0.000987691 13.5459C0.000987691 19.2003 0.00724262 20.8537 0.0343473 21.1748C0.128171 22.3049 0.305394 23.0158 0.68069 23.7935C1.39792 25.2822 2.76775 26.3998 4.38152 26.8168C4.9403 26.9606 5.55745 27.0398 6.34974 27.0774C6.68542 27.092 10.1069 27.1024 13.5304 27.1024C16.9539 27.1024 20.3775 27.0982 20.7048 27.0816C21.6222 27.0384 22.1549 26.9669 22.7439 26.8147C23.5441 26.6095 24.2898 26.2321 24.929 25.7088C25.5682 25.1856 26.0855 24.5291 26.4447 23.7852C26.8127 23.0263 26.9993 22.2882 27.0838 21.2171C27.1021 20.9836 27.1098 17.2605 27.1098 13.5423C27.1098 9.82357 27.1015 6.10731 27.0832 5.8738C26.9977 4.78544 26.8111 4.05361 26.4312 3.28008C26.1195 2.64688 25.7734 2.174 25.2709 1.6905C24.3744 0.833991 23.2777 0.312746 21.9706 0.124265C21.3374 0.0327341 21.2112 0.00562944 17.9712 0H13.5594Z" fill="url(#paint1_radial_4522_1169)"/>
<path d="M13.5531 3.54443C10.8351 3.54443 10.494 3.55632 9.42648 3.6049C8.36106 3.65369 7.63382 3.82236 6.99748 4.06985C6.33926 4.32547 5.7809 4.6674 5.22463 5.22388C4.66794 5.78015 4.326 6.33851 4.06955 6.99653C3.82144 7.63307 3.65256 8.36052 3.6046 9.42553C3.55707 10.493 3.54456 10.8343 3.54456 13.5523C3.54456 16.2703 3.55665 16.6104 3.60502 17.6779C3.65402 18.7433 3.82269 19.4705 4.06997 20.1069C4.3258 20.7651 4.66773 21.3234 5.22421 21.8797C5.78028 22.4364 6.33863 22.7792 6.99644 23.0348C7.63319 23.2823 8.36064 23.451 9.42586 23.4997C10.4934 23.5483 10.8343 23.5602 13.552 23.5602C16.2702 23.5602 16.6103 23.5483 17.6778 23.4997C18.7432 23.451 19.4713 23.2823 20.108 23.0348C20.766 22.7792 21.3236 22.4364 21.8796 21.8797C22.4363 21.3234 22.7783 20.7651 23.0347 20.1071C23.2807 19.4705 23.4496 18.7431 23.4997 17.6781C23.5476 16.6106 23.5601 16.2703 23.5601 13.5523C23.5601 10.8343 23.5476 10.4932 23.4997 9.42573C23.4496 8.36031 23.2807 7.63307 23.0347 6.99674C22.7783 6.33851 22.4363 5.78015 21.8796 5.22388C21.3229 4.66719 20.7663 4.32526 20.1074 4.06985C19.4694 3.82236 18.7417 3.65369 17.6763 3.6049C16.6088 3.55632 16.269 3.54443 13.5501 3.54443H13.5531ZM12.6553 5.34794C12.9217 5.34752 13.2191 5.34794 13.5531 5.34794C16.2252 5.34794 16.5419 5.35753 17.5971 5.40548C18.5729 5.4501 19.1024 5.61315 19.4552 5.75013C19.9223 5.93152 20.2552 6.14836 20.6053 6.49864C20.9556 6.84891 21.1724 7.18251 21.3542 7.64954C21.4912 8.0019 21.6544 8.53149 21.6989 9.50726C21.7468 10.5623 21.7572 10.8792 21.7572 13.55C21.7572 16.2209 21.7468 16.5378 21.6989 17.5928C21.6542 18.5686 21.4912 19.0981 21.3542 19.4505C21.1728 19.9175 20.9556 20.2501 20.6053 20.6002C20.255 20.9504 19.9225 21.1673 19.4552 21.3487C19.1029 21.4863 18.5729 21.6489 17.5971 21.6935C16.5421 21.7415 16.2252 21.7519 13.5531 21.7519C10.8808 21.7519 10.564 21.7415 9.50905 21.6935C8.53328 21.6485 8.00369 21.4854 7.65071 21.3485C7.18367 21.1671 6.85008 20.9502 6.4998 20.6C6.14952 20.2497 5.93269 19.9169 5.75088 19.4497C5.61389 19.0973 5.45064 18.5677 5.40623 17.592C5.35828 16.537 5.34869 16.22 5.34869 13.5475C5.34869 10.875 5.35828 10.5598 5.40623 9.50476C5.45085 8.52899 5.61389 7.9994 5.75088 7.64662C5.93227 7.17959 6.14952 6.84599 6.4998 6.49572C6.85008 6.14544 7.18367 5.9286 7.65071 5.74679C8.00349 5.60919 8.53328 5.44656 9.50905 5.40173C10.4323 5.36003 10.7901 5.34752 12.6553 5.34544V5.34794ZM18.8952 7.00966C18.6576 7.00966 18.4254 7.08011 18.2279 7.21209C18.0304 7.34407 17.8765 7.53166 17.7856 7.75112C17.6947 7.97059 17.671 8.21208 17.7174 8.44506C17.7637 8.67803 17.8781 8.89202 18.0461 9.05996C18.2141 9.22789 18.4282 9.34224 18.6612 9.38853C18.8941 9.43482 19.1356 9.41098 19.3551 9.32002C19.5745 9.22906 19.762 9.07507 19.8939 8.87752C20.0259 8.67997 20.0962 8.44774 20.0961 8.21019C20.0961 7.54717 19.5582 7.00925 18.8952 7.00925V7.00966ZM13.5531 8.41285C10.7148 8.41285 8.4136 10.714 8.4136 13.5523C8.4136 16.3906 10.7148 18.6907 13.5531 18.6907C16.3913 18.6907 18.6919 16.3906 18.6919 13.5523C18.6919 10.714 16.3911 8.41285 13.5529 8.41285H13.5531ZM13.5531 10.2164C15.3954 10.2164 16.889 11.7098 16.889 13.5523C16.889 15.3946 15.3954 16.8883 13.5531 16.8883C11.7106 16.8883 10.2171 15.3946 10.2171 13.5523C10.2171 11.7098 11.7106 10.2164 13.5531 10.2164Z" fill="white"/>
<defs>
<radialGradient id="paint0_radial_4522_1169" cx="0" cy="0" r="1" gradientUnits="userSpaceOnUse" gradientTransform="translate(7.20113 29.1899) rotate(-90) scale(26.8605 24.9892)">
<stop stop-color="#FFDD55"/>
<stop offset="0.1" stop-color="#FFDD55"/>
<stop offset="0.5" stop-color="#FF543E"/>
<stop offset="1" stop-color="#C837AB"/>
</radialGradient>
<radialGradient id="paint1_radial_4522_1169" cx="0" cy="0" r="1" gradientUnits="userSpaceOnUse" gradientTransform="translate(-4.54097 1.95241) rotate(78.6776) scale(12.0069 49.5053)">
<stop stop-color="#3771C8"/>
<stop offset="0.128" stop-color="#3771C8"/>
<stop offset="1" stop-color="#6600FF" stop-opacity="0"/>
</radialGradient>
</defs>
</svg>
