<svg width="29" height="28" viewBox="0 0 29 28" fill="none" xmlns="http://www.w3.org/2000/svg">
<path d="M26.0429 0H2.17675C1.62856 0 1.10282 0.217767 0.715197 0.605394C0.327569 0.993022 0.109802 1.51876 0.109802 2.06694V25.9331C0.109802 26.4812 0.327569 27.007 0.715197 27.3946C1.10282 27.7822 1.62856 28 2.17675 28H26.0429C26.591 28 27.1168 27.7822 27.5044 27.3946C27.892 27.007 28.1098 26.4812 28.1098 25.9331V2.06694C28.1098 1.51876 27.892 0.993022 27.5044 0.605394C27.1168 0.217767 26.591 0 26.0429 0ZM8.45536 23.8525H4.24564V10.4806H8.45536V23.8525ZM6.34758 8.6275C5.87006 8.62481 5.40404 8.48073 5.00833 8.21344C4.61261 7.94614 4.30495 7.56762 4.12416 7.12564C3.94337 6.68365 3.89756 6.19802 3.99251 5.73003C4.08745 5.26204 4.3189 4.83266 4.65765 4.49608C4.9964 4.1595 5.42725 3.93081 5.89585 3.83887C6.36444 3.74693 6.84977 3.79586 7.29058 3.97948C7.73139 4.16311 8.10793 4.47319 8.37268 4.87061C8.63742 5.26803 8.77851 5.73497 8.77814 6.2125C8.78264 6.53221 8.72273 6.84955 8.60198 7.14561C8.48123 7.44166 8.30211 7.71038 8.0753 7.93574C7.84849 8.16111 7.57863 8.3385 7.2818 8.45734C6.98497 8.57619 6.66725 8.63406 6.34758 8.6275ZM23.972 23.8642H19.7642V16.5589C19.7642 14.4044 18.8484 13.7394 17.6662 13.7394C16.4179 13.7394 15.1929 14.6806 15.1929 16.6133V23.8642H10.9831V10.4903H15.0315V12.3433H15.0859C15.4923 11.5208 16.9156 10.115 19.0876 10.115C21.4365 10.115 23.974 11.5092 23.974 15.5925L23.972 23.8642Z" fill="#0A66C2"/>
</svg>
