<svg width="1440" height="698" viewBox="0 0 1440 698" fill="none" xmlns="http://www.w3.org/2000/svg">
<g clip-path="url(#clip0_4521_1758)">
<rect x="1307" y="744.23" width="108" height="108" rx="54" transform="rotate(-90 1307 744.23)" fill="#0073C8" fill-opacity="0.1"/>
<rect x="1307" y="602.999" width="108" height="108" rx="54" transform="rotate(-90 1307 602.999)" fill="#06ACE5" fill-opacity="0.1"/>
<path d="M-433.5 432C-65.1245 432 266.601 493.736 504.821 592.118C624.019 641.345 717.984 698.998 781.56 761.074C845.011 823.029 876 887.025 876 950.5C876 1013.98 845.011 1077.97 781.56 1139.93C717.984 1202 624.019 1259.65 504.821 1308.88C266.601 1407.26 -65.1245 1469 -433.5 1469C-801.876 1469 -1133.6 1407.26 -1371.82 1308.88C-1491.02 1259.65 -1584.98 1202 -1648.56 1139.93C-1712.01 1077.97 -1743 1013.98 -1743 950.5C-1743 887.025 -1712.01 823.029 -1648.56 761.074C-1584.98 698.998 -1491.02 641.345 -1371.82 592.118C-1133.6 493.736 -801.876 432 -433.5 432Z" stroke="#3E3C3C" stroke-opacity="0.06" stroke-width="76"/>
<circle cx="1534.5" cy="635.5" r="522" stroke="#3E3C3C" stroke-opacity="0.06" stroke-width="69"/>
<rect x="136" y="569" width="26" height="26" rx="6" fill="#F0630E"/>
<rect x="170" y="569" width="26" height="26" rx="6" fill="#0073C8"/>
<rect x="204" y="569" width="26" height="26" rx="6" fill="#06ACE5"/>
</g>
<defs>
<clipPath id="clip0_4521_1758">
<rect width="1440" height="698" fill="white"/>
</clipPath>
</defs>
</svg>
